<svg width="68" height="68" viewBox="0 0 68 68" fill="none" xmlns="http://www.w3.org/2000/svg">
<g filter="url(#filter0_d)">
<rect x="4" width="60" height="60" rx="12" fill="#F2C94C"/>
<path d="M28.98 30.004C30.636 30.364 31.908 31.084 32.796 32.164C33.708 33.22 34.164 34.588 34.164 36.268C34.164 38.428 33.36 40.096 31.752 41.272C30.168 42.424 27.816 43 24.696 43H13.104V17.8H23.976C26.784 17.8 28.956 18.364 30.492 19.492C32.052 20.62 32.832 22.216 32.832 24.28C32.832 25.672 32.484 26.86 31.788 27.844C31.116 28.804 30.18 29.524 28.98 30.004ZM15.768 19.996V29.14H23.796C25.836 29.14 27.408 28.756 28.512 27.988C29.616 27.196 30.168 26.056 30.168 24.568C30.168 23.08 29.616 21.952 28.512 21.184C27.408 20.392 25.836 19.996 23.796 19.996H15.768ZM24.66 40.804C26.916 40.804 28.62 40.42 29.772 39.652C30.924 38.884 31.5 37.684 31.5 36.052C31.5 32.908 29.22 31.336 24.66 31.336H15.768V40.804H24.66ZM47.1926 43.216C45.3206 43.216 43.5206 42.916 41.7926 42.316C40.0886 41.716 38.7686 40.924 37.8326 39.94L38.8766 37.888C39.7886 38.8 41.0006 39.544 42.5126 40.12C44.0246 40.672 45.5846 40.948 47.1926 40.948C49.4486 40.948 51.1406 40.54 52.2686 39.724C53.3966 38.884 53.9606 37.804 53.9606 36.484C53.9606 35.476 53.6486 34.672 53.0246 34.072C52.4246 33.472 51.6806 33.016 50.7926 32.704C49.9046 32.368 48.6686 32.008 47.0846 31.624C45.1886 31.144 43.6766 30.688 42.5486 30.256C41.4206 29.8 40.4486 29.116 39.6326 28.204C38.8406 27.292 38.4446 26.056 38.4446 24.496C38.4446 23.224 38.7806 22.072 39.4526 21.04C40.1246 19.984 41.1566 19.144 42.5486 18.52C43.9406 17.896 45.6686 17.584 47.7326 17.584C49.1726 17.584 50.5766 17.788 51.9446 18.196C53.3366 18.58 54.5366 19.12 55.5446 19.816L54.6446 21.94C53.5886 21.244 52.4606 20.728 51.2606 20.392C50.0606 20.032 48.8846 19.852 47.7326 19.852C45.5246 19.852 43.8566 20.284 42.7286 21.148C41.6246 21.988 41.0726 23.08 41.0726 24.424C41.0726 25.432 41.3726 26.248 41.9726 26.872C42.5966 27.472 43.3646 27.94 44.2766 28.276C45.2126 28.588 46.4606 28.936 48.0206 29.32C49.8686 29.776 51.3566 30.232 52.4846 30.688C53.6366 31.12 54.6086 31.792 55.4006 32.704C56.1926 33.592 56.5886 34.804 56.5886 36.34C56.5886 37.612 56.2406 38.776 55.5446 39.832C54.8726 40.864 53.8286 41.692 52.4126 42.316C50.9966 42.916 49.2566 43.216 47.1926 43.216Z" fill="black"/>
</g>
<defs>
<filter id="filter0_d" x="0" y="0" width="68" height="68" filterUnits="userSpaceOnUse" color-interpolation-filters="sRGB">
<feFlood flood-opacity="0" result="BackgroundImageFix"/>
<feColorMatrix in="SourceAlpha" type="matrix" values="0 0 0 0 0 0 0 0 0 0 0 0 0 0 0 0 0 0 127 0"/>
<feOffset dy="4"/>
<feGaussianBlur stdDeviation="2"/>
<feColorMatrix type="matrix" values="0 0 0 0 0 0 0 0 0 0 0 0 0 0 0 0 0 0 0.25 0"/>
<feBlend mode="normal" in2="BackgroundImageFix" result="effect1_dropShadow"/>
<feBlend mode="normal" in="SourceGraphic" in2="effect1_dropShadow" result="shape"/>
</filter>
</defs>
</svg>
