<svg width="249" height="65" viewBox="0 0 249 65" fill="none" xmlns="http://www.w3.org/2000/svg">
<rect y="2" width="60" height="60" rx="12" fill="#F2C94C"/>
<path d="M24.98 32.004C26.636 32.364 27.908 33.084 28.796 34.164C29.708 35.22 30.164 36.588 30.164 38.268C30.164 40.428 29.36 42.096 27.752 43.272C26.168 44.424 23.816 45 20.696 45H9.104V19.8H19.976C22.784 19.8 24.956 20.364 26.492 21.492C28.052 22.62 28.832 24.216 28.832 26.28C28.832 27.672 28.484 28.86 27.788 29.844C27.116 30.804 26.18 31.524 24.98 32.004ZM11.768 21.996V31.14H19.796C21.836 31.14 23.408 30.756 24.512 29.988C25.616 29.196 26.168 28.056 26.168 26.568C26.168 25.08 25.616 23.952 24.512 23.184C23.408 22.392 21.836 21.996 19.796 21.996H11.768ZM20.66 42.804C22.916 42.804 24.62 42.42 25.772 41.652C26.924 40.884 27.5 39.684 27.5 38.052C27.5 34.908 25.22 33.336 20.66 33.336H11.768V42.804H20.66ZM43.1926 45.216C41.3206 45.216 39.5206 44.916 37.7926 44.316C36.0886 43.716 34.7686 42.924 33.8326 41.94L34.8766 39.888C35.7886 40.8 37.0006 41.544 38.5126 42.12C40.0246 42.672 41.5846 42.948 43.1926 42.948C45.4486 42.948 47.1406 42.54 48.2686 41.724C49.3966 40.884 49.9606 39.804 49.9606 38.484C49.9606 37.476 49.6486 36.672 49.0246 36.072C48.4246 35.472 47.6806 35.016 46.7926 34.704C45.9046 34.368 44.6686 34.008 43.0846 33.624C41.1886 33.144 39.6766 32.688 38.5486 32.256C37.4206 31.8 36.4486 31.116 35.6326 30.204C34.8406 29.292 34.4446 28.056 34.4446 26.496C34.4446 25.224 34.7806 24.072 35.4526 23.04C36.1246 21.984 37.1566 21.144 38.5486 20.52C39.9406 19.896 41.6686 19.584 43.7326 19.584C45.1726 19.584 46.5766 19.788 47.9446 20.196C49.3366 20.58 50.5366 21.12 51.5446 21.816L50.6446 23.94C49.5886 23.244 48.4606 22.728 47.2606 22.392C46.0606 22.032 44.8846 21.852 43.7326 21.852C41.5246 21.852 39.8566 22.284 38.7286 23.148C37.6246 23.988 37.0726 25.08 37.0726 26.424C37.0726 27.432 37.3726 28.248 37.9726 28.872C38.5966 29.472 39.3646 29.94 40.2766 30.276C41.2126 30.588 42.4606 30.936 44.0206 31.32C45.8686 31.776 47.3566 32.232 48.4846 32.688C49.6366 33.12 50.6086 33.792 51.4006 34.704C52.1926 35.592 52.5886 36.804 52.5886 38.34C52.5886 39.612 52.2406 40.776 51.5446 41.832C50.8726 42.864 49.8286 43.692 48.4126 44.316C46.9966 44.916 45.2566 45.216 43.1926 45.216Z" fill="black"/>
<g filter="url(#filter0_d)">
<path d="M95.8438 43.4688C95.8021 43.3438 95.7812 43.1458 95.7812 42.875C95.7812 42.6042 95.8021 42.4375 95.8438 42.375C95.8646 42.3542 95.9167 42.3229 96 42.2812C96.1042 42.2188 96.2083 42.1562 96.3125 42.0938C96.4375 42.0312 96.5521 41.9792 96.6562 41.9375C96.7812 41.875 96.875 41.8333 96.9375 41.8125C97.8542 41.5625 98.7604 41.2917 99.6562 41C100.573 40.7083 101.469 40.375 102.344 40C103.219 39.625 104.062 39.1979 104.875 38.7188C105.688 38.2188 106.469 37.6354 107.219 36.9688C109.01 35.3438 110.292 33.9479 111.062 32.7812C111.854 31.5938 112.271 30.5938 112.312 29.7812C112.354 28.9688 112.094 28.3229 111.531 27.8438C110.99 27.3438 110.292 26.9792 109.438 26.75C108.604 26.5 107.677 26.3646 106.656 26.3438C105.656 26.3229 104.719 26.375 103.844 26.5C102.99 26.625 102.26 26.8021 101.656 27.0312C101.073 27.2604 100.771 27.5 100.75 27.75L99.6562 38.5938C99.6354 38.7812 99.5312 38.9271 99.3438 39.0312C99.1771 39.1146 98.9896 39.1562 98.7812 39.1562C98.5938 39.1562 98.4167 39.1146 98.25 39.0312C98.1042 38.9271 98.0312 38.7812 98.0312 38.5938V29.875H95.8438C95.8229 29.8333 95.8125 29.75 95.8125 29.625C95.8125 29.4792 95.8229 29.3854 95.8438 29.3438C95.9271 29.2396 96.0625 29.0625 96.25 28.8125C96.4583 28.5417 96.6771 28.2604 96.9062 27.9688C97.1354 27.6771 97.3542 27.4062 97.5625 27.1562C97.7708 26.9062 97.9271 26.7396 98.0312 26.6562C98.0521 26.3854 98.0833 25.9167 98.125 25.25C98.1875 24.5833 98.2396 23.875 98.2812 23.125C98.3438 22.375 98.3958 21.6667 98.4375 21C98.5 20.3125 98.5417 19.8438 98.5625 19.5938C98.6042 19.0312 98.5417 18.6354 98.375 18.4062C98.2292 18.1562 98.0208 18.0312 97.75 18.0312C97.4792 18.0104 97.1771 18.0833 96.8438 18.25C96.5104 18.3958 96.1771 18.5833 95.8438 18.8125C95.5104 19.0417 95.1979 19.2812 94.9062 19.5312C94.6146 19.7812 94.3854 19.9792 94.2188 20.125C94.0521 20.2917 93.7604 20.5833 93.3438 21C92.9271 21.3958 92.4896 21.8333 92.0312 22.3125C91.5729 22.7708 91.1354 23.2083 90.7188 23.625C90.3021 24.0208 90.0208 24.3021 89.875 24.4688H88.25C88.0625 23.8854 88.1771 23.2708 88.5938 22.625C89.0312 21.9583 89.6771 21.2812 90.5312 20.5938C91.3854 19.9062 92.3958 19.2188 93.5625 18.5312C94.75 17.8438 96 17.1979 97.3125 16.5938C98.625 15.9688 99.9375 15.3958 101.25 14.875C102.583 14.3542 103.823 13.9167 104.969 13.5625C106.135 13.1875 107.156 12.9062 108.031 12.7188C108.906 12.5312 109.542 12.4688 109.938 12.5312C110.312 12.6146 110.552 12.8229 110.656 13.1562C110.76 13.4896 110.781 13.8646 110.719 14.2812C110.656 14.6771 110.542 15.0729 110.375 15.4688C110.229 15.8646 110.083 16.1562 109.938 16.3438C109.292 17.2604 108.698 18.0938 108.156 18.8438C107.615 19.5729 107.052 20.2708 106.469 20.9375C105.906 21.5833 105.292 22.2396 104.625 22.9062C103.979 23.5521 103.229 24.2604 102.375 25.0312C103.083 25.1562 103.76 25.1771 104.406 25.0938C105.073 25.0104 105.719 24.9271 106.344 24.8438C106.99 24.7396 107.646 24.6875 108.312 24.6875C109 24.6667 109.729 24.7812 110.5 25.0312C110.958 25.1771 111.365 25.3333 111.719 25.5C112.073 25.6667 112.375 25.8646 112.625 26.0938C112.896 26.3229 113.115 26.6146 113.281 26.9688C113.469 27.3021 113.625 27.7292 113.75 28.25C114.021 29.5 113.917 30.7188 113.438 31.9062C112.958 33.0938 112.229 34.2188 111.25 35.2812C110.292 36.3438 109.167 37.3438 107.875 38.2812C106.583 39.1979 105.271 40.0312 103.938 40.7812C102.604 41.5312 101.312 42.1771 100.062 42.7188C98.8333 43.2604 97.7917 43.6875 96.9375 44C96.7083 44.1042 96.4896 44.0938 96.2812 43.9688C96.0729 43.8229 95.9271 43.6562 95.8438 43.4688ZM100.75 24.4688C100.896 24.3438 101.104 24.1458 101.375 23.875C101.667 23.5833 101.99 23.2604 102.344 22.9062C102.719 22.5521 103.104 22.1875 103.5 21.8125C103.896 21.4167 104.26 21.0417 104.594 20.6875C104.948 20.3125 105.26 19.9792 105.531 19.6875C105.823 19.3958 106.031 19.1771 106.156 19.0312C106.365 18.8229 106.615 18.5208 106.906 18.125C107.219 17.7083 107.521 17.3021 107.812 16.9062C108.104 16.4896 108.354 16.125 108.562 15.8125C108.771 15.5 108.875 15.3125 108.875 15.25V13.625C108.25 13.5208 107.51 13.5729 106.656 13.7812C105.823 13.9896 104.99 14.2604 104.156 14.5938C103.323 14.9062 102.542 15.2396 101.812 15.5938C101.104 15.9271 100.562 16.1771 100.188 16.3438L100.75 17.4062V24.4688ZM118 42.375C117.479 41.6042 117.167 40.75 117.062 39.8125C116.958 38.8542 116.958 37.8542 117.062 36.8125C117.167 35.7708 117.333 34.7188 117.562 33.6562C117.792 32.5938 117.99 31.5729 118.156 30.5938C118.323 29.5938 118.417 28.6667 118.438 27.8125C118.458 26.9375 118.312 26.1875 118 25.5625C117.833 25.2292 117.604 25.0729 117.312 25.0938C117.042 25.0938 116.74 25.1354 116.406 25.2188C116.094 25.2812 115.771 25.3021 115.438 25.2812C115.125 25.2604 114.844 25.0625 114.594 24.6875C114.615 24.6042 114.698 24.5 114.844 24.375C114.969 24.2292 115.062 24.1458 115.125 24.125C117 23.8542 118.562 24.0521 119.812 24.7188C121.083 25.3646 122.094 26.2917 122.844 27.5C123.594 28.6875 124.104 30.0521 124.375 31.5938C124.667 33.1354 124.771 34.6667 124.688 36.1875C124.604 37.7083 124.365 39.125 123.969 40.4375C123.573 41.7292 123.073 42.7292 122.469 43.4375C121.865 44.1458 121.177 44.4583 120.406 44.375C119.635 44.2917 118.833 43.625 118 42.375ZM119.625 41.2812C119.646 41.3438 119.708 41.4271 119.812 41.5312C119.917 41.6354 120.021 41.75 120.125 41.875C120.25 42 120.365 42.1146 120.469 42.2188C120.573 42.3021 120.646 42.3542 120.688 42.375C121.458 41.9375 122.031 41.3438 122.406 40.5938C122.781 39.8438 123 39.0104 123.062 38.0938C123.146 37.1771 123.104 36.2188 122.938 35.2188C122.792 34.1979 122.573 33.2188 122.281 32.2812C121.99 31.3438 121.646 30.4792 121.25 29.6875C120.875 28.8958 120.51 28.25 120.156 27.75C120.135 28.0208 120.094 28.4375 120.031 29C119.969 29.5625 119.906 30.1979 119.844 30.9062C119.781 31.6146 119.708 32.3646 119.625 33.1562C119.542 33.9479 119.458 34.7083 119.375 35.4375C119.312 36.1458 119.25 36.7812 119.188 37.3438C119.125 37.9062 119.083 38.3229 119.062 38.5938C119.042 38.8021 119.042 39.0417 119.062 39.3125C119.104 39.5625 119.156 39.8125 119.219 40.0625C119.281 40.3125 119.344 40.5521 119.406 40.7812C119.49 40.9896 119.562 41.1562 119.625 41.2812ZM128.75 42.375C128.229 41.6042 127.917 40.75 127.812 39.8125C127.708 38.8542 127.708 37.8542 127.812 36.8125C127.917 35.7708 128.083 34.7188 128.312 33.6562C128.542 32.5938 128.74 31.5729 128.906 30.5938C129.073 29.5938 129.167 28.6667 129.188 27.8125C129.208 26.9375 129.062 26.1875 128.75 25.5625C128.583 25.2292 128.354 25.0729 128.062 25.0938C127.792 25.0938 127.49 25.1354 127.156 25.2188C126.844 25.2812 126.521 25.3021 126.188 25.2812C125.875 25.2604 125.594 25.0625 125.344 24.6875C125.365 24.6042 125.448 24.5 125.594 24.375C125.719 24.2292 125.812 24.1458 125.875 24.125C127.75 23.8542 129.312 24.0521 130.562 24.7188C131.833 25.3646 132.844 26.2917 133.594 27.5C134.344 28.6875 134.854 30.0521 135.125 31.5938C135.417 33.1354 135.521 34.6667 135.438 36.1875C135.354 37.7083 135.115 39.125 134.719 40.4375C134.323 41.7292 133.823 42.7292 133.219 43.4375C132.615 44.1458 131.927 44.4583 131.156 44.375C130.385 44.2917 129.583 43.625 128.75 42.375ZM130.375 41.2812C130.396 41.3438 130.458 41.4271 130.562 41.5312C130.667 41.6354 130.771 41.75 130.875 41.875C131 42 131.115 42.1146 131.219 42.2188C131.323 42.3021 131.396 42.3542 131.438 42.375C132.208 41.9375 132.781 41.3438 133.156 40.5938C133.531 39.8438 133.75 39.0104 133.812 38.0938C133.896 37.1771 133.854 36.2188 133.688 35.2188C133.542 34.1979 133.323 33.2188 133.031 32.2812C132.74 31.3438 132.396 30.4792 132 29.6875C131.625 28.8958 131.26 28.25 130.906 27.75C130.885 28.0208 130.844 28.4375 130.781 29C130.719 29.5625 130.656 30.1979 130.594 30.9062C130.531 31.6146 130.458 32.3646 130.375 33.1562C130.292 33.9479 130.208 34.7083 130.125 35.4375C130.062 36.1458 130 36.7812 129.938 37.3438C129.875 37.9062 129.833 38.3229 129.812 38.5938C129.792 38.8021 129.792 39.0417 129.812 39.3125C129.854 39.5625 129.906 39.8125 129.969 40.0625C130.031 40.3125 130.094 40.5521 130.156 40.7812C130.24 40.9896 130.312 41.1562 130.375 41.2812ZM139.156 41.8125C139.177 41.4792 139.25 41 139.375 40.375C139.521 39.7292 139.646 39.0521 139.75 38.3438C139.875 37.6146 139.948 36.8958 139.969 36.1875C140.01 35.4792 139.948 34.8854 139.781 34.4062C139.615 33.9062 139.312 33.5729 138.875 33.4062C138.458 33.2396 137.844 33.3333 137.031 33.6875C136.573 33.5625 136.312 33.3854 136.25 33.1562C136.188 32.9271 136.25 32.6667 136.438 32.375C136.625 32.0833 136.885 31.7708 137.219 31.4375C137.573 31.0833 137.927 30.7292 138.281 30.375C138.635 30 138.948 29.6354 139.219 29.2812C139.51 28.9271 139.677 28.5833 139.719 28.25C139.698 28.0833 139.656 27.7188 139.594 27.1562C139.552 26.5938 139.49 25.9479 139.406 25.2188C139.323 24.4688 139.24 23.6771 139.156 22.8438C139.094 22.0104 139.021 21.2188 138.938 20.4688C138.854 19.7188 138.781 19.0729 138.719 18.5312C138.677 17.9688 138.646 17.5938 138.625 17.4062C138.604 17.1354 138.604 16.8854 138.625 16.6562C138.667 16.4062 138.75 16.1979 138.875 16.0312C139 15.8646 139.167 15.7604 139.375 15.7188C139.604 15.6562 139.896 15.6875 140.25 15.8125C140.354 16.6042 140.458 17.5 140.562 18.5C140.667 19.5 140.781 20.5312 140.906 21.5938C141.031 22.6562 141.167 23.7188 141.312 24.7812C141.479 25.8438 141.667 26.8333 141.875 27.75C142.083 27.5833 142.333 27.3021 142.625 26.9062C142.917 26.4896 143.229 26.0417 143.562 25.5625C143.896 25.0625 144.24 24.5729 144.594 24.0938C144.969 23.5938 145.323 23.1979 145.656 22.9062C145.99 22.5938 146.302 22.4167 146.594 22.375C146.885 22.3125 147.125 22.4688 147.312 22.8438C147.333 22.8854 147.344 22.9792 147.344 23.125C147.344 23.25 147.333 23.3438 147.312 23.4062C147.042 24.2396 146.604 25.0104 146 25.7188C145.417 26.4271 144.812 27.1146 144.188 27.7812C143.583 28.4479 143.052 29.1354 142.594 29.8438C142.135 30.5312 141.896 31.2708 141.875 32.0625C142.062 32.2292 142.333 32.5 142.688 32.875L145.406 35.5938C145.927 36.0938 146.417 36.5833 146.875 37.0625C147.333 37.5208 147.74 37.9375 148.094 38.3125L148.906 39.0938C149.031 39.2188 149.229 39.4271 149.5 39.7188C149.771 39.9896 150.01 40.2917 150.219 40.625C150.427 40.9583 150.542 41.2812 150.562 41.5938C150.583 41.9062 150.396 42.1667 150 42.375C149.958 42.3958 149.865 42.4062 149.719 42.4062C149.594 42.4062 149.51 42.3958 149.469 42.375C148.406 41.0417 147.229 39.6979 145.938 38.3438C144.667 36.9688 143.312 35.7812 141.875 34.7812C141.854 34.9688 141.823 35.2604 141.781 35.6562C141.74 36.0521 141.677 36.5 141.594 37C141.531 37.5 141.458 38.0312 141.375 38.5938C141.312 39.1354 141.24 39.6562 141.156 40.1562C141.073 40.6562 141 41.1042 140.938 41.5C140.875 41.8958 140.823 42.1875 140.781 42.375C140.76 42.4792 140.698 42.6458 140.594 42.875C140.51 43.0833 140.396 43.2917 140.25 43.5C140.104 43.7083 139.938 43.875 139.75 44C139.562 44.1042 139.365 44.1042 139.156 44C139.156 43.9167 139.146 43.7812 139.125 43.5938C139.125 43.3854 139.125 43.1667 139.125 42.9375C139.125 42.6875 139.125 42.4583 139.125 42.25C139.146 42.0417 139.156 41.8958 139.156 41.8125ZM156.281 43.4688C155.094 42.9896 154.188 42.3646 153.562 41.5938C152.938 40.8021 152.51 39.9896 152.281 39.1562C152.052 38.3021 151.979 37.4792 152.062 36.6875C152.146 35.8958 152.302 35.2604 152.531 34.7812C152.76 34.2812 153.021 34.0104 153.312 33.9688C153.625 33.9062 153.885 34.1771 154.094 34.7812C153.865 36.0938 153.865 37.2396 154.094 38.2188C154.323 39.1771 154.698 39.9792 155.219 40.625C155.74 41.25 156.375 41.7188 157.125 42.0312C157.875 42.3229 158.646 42.4792 159.438 42.5C160.229 42.5 161 42.3542 161.75 42.0625C162.5 41.7708 163.146 41.3542 163.688 40.8125C164.229 40.25 164.625 39.5521 164.875 38.7188C165.125 37.8854 165.146 36.9375 164.938 35.875C164.833 35.3958 164.552 34.8125 164.094 34.125C163.656 33.4167 163.146 32.6667 162.562 31.875C162 31.0833 161.417 30.2812 160.812 29.4688C160.208 28.6354 159.698 27.8438 159.281 27.0938C158.885 26.3229 158.625 25.625 158.5 25C158.396 24.3542 158.552 23.8229 158.969 23.4062C159.302 23.1354 159.792 22.7292 160.438 22.1875C161.104 21.625 161.823 21.0729 162.594 20.5312C163.365 19.9896 164.146 19.5208 164.938 19.125C165.75 18.7083 166.479 18.5 167.125 18.5C167.604 18.5 167.854 18.5729 167.875 18.7188C167.917 18.8646 167.812 19.0625 167.562 19.3125C167.312 19.5417 166.948 19.8229 166.469 20.1562C166.01 20.4896 165.51 20.8542 164.969 21.25C164.427 21.625 163.875 22.0312 163.312 22.4688C162.771 22.8854 162.302 23.3125 161.906 23.75C161.531 24.1667 161.25 24.5833 161.062 25C160.896 25.3958 160.917 25.7708 161.125 26.125C161.875 27.1875 162.625 28.2604 163.375 29.3438C164.146 30.4271 164.812 31.5 165.375 32.5625C165.938 33.6042 166.354 34.6354 166.625 35.6562C166.917 36.6562 166.958 37.625 166.75 38.5625C166.542 39.4792 166.031 40.3542 165.219 41.1875C164.427 42.0208 163.25 42.7812 161.688 43.4688C160.75 43.8646 159.844 44.0521 158.969 44.0312C158.115 44.0104 157.219 43.8229 156.281 43.4688ZM175.219 43.4688C174.344 42.7812 173.646 41.9792 173.125 41.0625C172.625 40.125 172.24 39.125 171.969 38.0625C171.844 38.1667 171.656 38.2812 171.406 38.4062C171.156 38.5312 170.896 38.6354 170.625 38.7188C170.375 38.8021 170.125 38.8646 169.875 38.9062C169.625 38.9271 169.438 38.8958 169.312 38.8125C169.208 38.7292 169.177 38.5938 169.219 38.4062C169.281 38.1979 169.479 37.8958 169.812 37.5C169.854 37.4375 169.979 37.3021 170.188 37.0938C170.417 36.8854 170.656 36.6667 170.906 36.4375C171.156 36.1875 171.385 35.9583 171.594 35.75C171.802 35.5208 171.927 35.375 171.969 35.3125C172.198 34.7917 172.333 34.2188 172.375 33.5938C172.438 32.9688 172.469 32.3229 172.469 31.6562C172.49 30.9688 172.531 30.2917 172.594 29.625C172.656 28.9583 172.812 28.3333 173.062 27.75C173.208 27.4167 173.479 27.0104 173.875 26.5312C174.292 26.0312 174.75 25.5521 175.25 25.0938C175.771 24.6354 176.292 24.2292 176.812 23.875C177.354 23.5 177.812 23.2708 178.188 23.1875C178.583 23.1042 178.865 23.1979 179.031 23.4688C179.219 23.7396 179.219 24.2604 179.031 25.0312C178.802 25.9479 178.448 26.8438 177.969 27.7188C177.51 28.5729 177.031 29.4271 176.531 30.2812C176.031 31.1146 175.552 31.9479 175.094 32.7812C174.656 33.6146 174.344 34.4583 174.156 35.3125C174.052 35.7708 174 36.3333 174 37C174 37.6458 174.073 38.2917 174.219 38.9375C174.365 39.5833 174.604 40.1771 174.938 40.7188C175.271 41.2396 175.729 41.6042 176.312 41.8125C176.979 42.0625 177.646 42.125 178.312 42C178.979 41.875 179.625 41.6354 180.25 41.2812C180.896 40.9271 181.51 40.4896 182.094 39.9688C182.677 39.4271 183.219 38.875 183.719 38.3125C184.219 37.75 184.667 37.2083 185.062 36.6875C185.458 36.1458 185.792 35.6875 186.062 35.3125L186.594 35.875C186.74 36 186.646 36.3542 186.312 36.9375C186 37.5208 185.531 38.1875 184.906 38.9375C184.302 39.6667 183.583 40.4167 182.75 41.1875C181.917 41.9583 181.052 42.6042 180.156 43.125C179.281 43.6458 178.406 43.9688 177.531 44.0938C176.677 44.2188 175.906 44.0104 175.219 43.4688ZM174.156 29.875C174.135 29.9792 174.115 30.1667 174.094 30.4375C174.094 30.6875 174.094 30.9583 174.094 31.25C174.094 31.5417 174.094 31.8125 174.094 32.0625C174.115 32.3125 174.135 32.4896 174.156 32.5938C174.823 31.4479 175.448 30.2292 176.031 28.9375C176.615 27.6458 177.073 26.3438 177.406 25.0312C176.927 25.1979 176.49 25.4583 176.094 25.8125C175.719 26.1458 175.396 26.5417 175.125 27C174.854 27.4375 174.635 27.9062 174.469 28.4062C174.323 28.9062 174.219 29.3958 174.156 29.875ZM186.438 43.4688C186.021 42.5938 185.792 41.7083 185.75 40.8125C185.729 39.9167 185.781 39 185.906 38.0625C185.927 37.7708 185.979 37.3333 186.062 36.75C186.146 36.1667 186.24 35.5208 186.344 34.8125C186.448 34.1042 186.562 33.3542 186.688 32.5625C186.812 31.7708 186.927 31.0208 187.031 30.3125C187.135 29.6042 187.229 28.9792 187.312 28.4375C187.417 27.875 187.49 27.4583 187.531 27.1875C187.698 26.3125 187.875 25.5729 188.062 24.9688C188.271 24.3438 188.542 23.8646 188.875 23.5312C189.229 23.1979 189.677 23.0208 190.219 23C190.781 22.9792 191.5 23.1146 192.375 23.4062C192.479 23.4271 192.594 23.5104 192.719 23.6562C192.844 23.7812 192.917 23.875 192.938 23.9375C192.979 24.2083 193.052 24.625 193.156 25.1875C193.281 25.75 193.417 26.3958 193.562 27.125C193.708 27.8333 193.854 28.5833 194 29.375C194.167 30.1458 194.323 30.8958 194.469 31.625C194.615 32.3333 194.74 32.9688 194.844 33.5312C194.969 34.0938 195.062 34.5104 195.125 34.7812C195.438 36.2604 195.823 37.2917 196.281 37.875C196.74 38.4375 197.229 38.7292 197.75 38.75C198.271 38.7708 198.802 38.6042 199.344 38.25C199.906 37.875 200.458 37.4896 201 37.0938C201.542 36.6771 202.052 36.3229 202.531 36.0312C203.01 35.7396 203.427 35.6875 203.781 35.875C203.781 36.2708 203.688 36.6562 203.5 37.0312C203.312 37.4062 203.083 37.7604 202.812 38.0938C202.562 38.4062 202.281 38.6979 201.969 38.9688C201.656 39.2396 201.365 39.4688 201.094 39.6562C199.927 40.4271 198.948 40.8333 198.156 40.875C197.385 40.9167 196.729 40.7396 196.188 40.3438C195.646 39.9479 195.208 39.4062 194.875 38.7188C194.542 38.0312 194.24 37.3333 193.969 36.625C193.719 35.9167 193.469 35.2917 193.219 34.75C192.99 34.1875 192.708 33.8333 192.375 33.6875C192.312 33.9583 192.177 34.4271 191.969 35.0938C191.781 35.7604 191.573 36.4688 191.344 37.2188C191.115 37.9688 190.896 38.6771 190.688 39.3438C190.479 40.0104 190.333 40.4792 190.25 40.75C190.208 40.8542 190.115 41.0521 189.969 41.3438C189.844 41.6354 189.677 41.9583 189.469 42.3125C189.26 42.6458 189.021 42.9792 188.75 43.3125C188.5 43.625 188.24 43.8646 187.969 44.0312C187.698 44.2188 187.427 44.2812 187.156 44.2188C186.885 44.1562 186.646 43.9062 186.438 43.4688ZM188.062 34.25C188.021 34.5 187.99 34.9583 187.969 35.625C187.969 36.2917 187.969 37 187.969 37.75C187.969 38.5 187.969 39.2083 187.969 39.875C187.99 40.5417 188.021 41.0104 188.062 41.2812C188.792 40.1771 189.448 38.8958 190.031 37.4375C190.615 35.9583 191.052 34.4375 191.344 32.875C191.656 31.2917 191.781 29.7292 191.719 28.1875C191.656 26.625 191.344 25.2083 190.781 23.9375C190.427 24.5833 190.094 25.3958 189.781 26.375C189.469 27.3542 189.198 28.3542 188.969 29.375C188.74 30.375 188.542 31.3229 188.375 32.2188C188.229 33.0938 188.125 33.7708 188.062 34.25ZM204.031 43.6562C203.698 44.3438 203.417 44.6875 203.188 44.6875C202.958 44.7083 202.76 44.4792 202.594 44C202.448 43.5417 202.323 42.8854 202.219 42.0312C202.135 41.1771 202.073 40.2292 202.031 39.1875C202.01 38.1458 202.01 37.0521 202.031 35.9062C202.052 34.7604 202.083 33.6562 202.125 32.5938C202.188 31.5312 202.26 30.5625 202.344 29.6875C202.427 28.7917 202.51 28.0938 202.594 27.5938C202.698 27.0729 202.802 26.7917 202.906 26.75C203.01 26.7083 203.115 26.9896 203.219 27.5938C203.885 27.0938 204.604 26.625 205.375 26.1875C206.146 25.7292 206.938 25.3542 207.75 25.0625C208.583 24.75 209.417 24.5521 210.25 24.4688C211.104 24.3854 211.927 24.4583 212.719 24.6875C212.802 24.9583 212.812 25.2708 212.75 25.625C212.688 25.9792 212.49 26.2083 212.156 26.3125C211.823 26.25 211.385 26.2188 210.844 26.2188C210.302 26.2188 209.729 26.2604 209.125 26.3438C208.521 26.4271 207.917 26.5625 207.312 26.75C206.708 26.9375 206.156 27.1875 205.656 27.5C205.177 27.7917 204.781 28.1562 204.469 28.5938C204.177 29.0104 204.031 29.5104 204.031 30.0938V43.6562ZM216.844 42.9062C216.073 42.3229 215.51 41.625 215.156 40.8125C214.823 39.9792 214.635 39.0833 214.594 38.125C214.573 37.1458 214.677 36.1458 214.906 35.125C215.156 34.1042 215.479 33.1146 215.875 32.1562C216.271 31.1979 216.708 30.3125 217.188 29.5C217.688 28.6667 218.188 27.9688 218.688 27.4062C219.188 26.8229 219.656 26.4167 220.094 26.1875C220.531 25.9375 220.885 25.9167 221.156 26.125C221.198 26.3542 221.271 26.7812 221.375 27.4062C221.5 28.0104 221.615 28.6667 221.719 29.375C221.844 30.0625 221.948 30.7188 222.031 31.3438C222.135 31.9479 222.208 32.3646 222.25 32.5938C222.292 32.8646 222.302 33.1562 222.281 33.4688C222.26 33.7604 222.198 34.0312 222.094 34.2812C221.99 34.5104 221.812 34.6875 221.562 34.8125C221.333 34.9167 221.021 34.9062 220.625 34.7812C220.604 34.6354 220.542 34.3854 220.438 34.0312C220.354 33.6771 220.25 33.3021 220.125 32.9062C220.021 32.4896 219.906 32.1042 219.781 31.75C219.677 31.375 219.604 31.1146 219.562 30.9688L219.031 30.4375C218.385 30.875 217.844 31.5 217.406 32.3125C216.99 33.125 216.688 34.0104 216.5 34.9688C216.312 35.9062 216.26 36.8542 216.344 37.8125C216.448 38.75 216.688 39.5833 217.062 40.3125C217.458 41.0208 218 41.5625 218.688 41.9375C219.396 42.2917 220.271 42.3438 221.312 42.0938C222.375 41.8438 223.615 41.2396 225.031 40.2812C226.448 39.3021 228.062 37.8333 229.875 35.875V36.9688C229.875 37.0312 229.75 37.2188 229.5 37.5312C229.25 37.8438 228.948 38.2083 228.594 38.625C228.24 39.0208 227.875 39.4167 227.5 39.8125C227.146 40.2083 226.844 40.5208 226.594 40.75C225.906 41.3958 225.167 41.9896 224.375 42.5312C223.604 43.0729 222.802 43.4792 221.969 43.75C221.135 44.0208 220.281 44.1042 219.406 44C218.552 43.9167 217.698 43.5521 216.844 42.9062ZM233.625 42.9062C233.812 40.6979 233.854 38.5833 233.75 36.5625C233.667 34.5417 233.5 32.5312 233.25 30.5312C233 28.5312 232.708 26.5 232.375 24.4375C232.042 22.375 231.74 20.2083 231.469 17.9375C231.469 17.875 231.458 17.7708 231.438 17.625C231.438 17.4792 231.438 17.3229 231.438 17.1562C231.438 16.9688 231.438 16.8021 231.438 16.6562C231.458 16.5104 231.469 16.4062 231.469 16.3438H232.562C232.625 16.7188 232.719 17.3021 232.844 18.0938C232.99 18.8854 233.146 19.7812 233.312 20.7812C233.5 21.7812 233.688 22.8333 233.875 23.9375C234.083 25.0417 234.271 26.0938 234.438 27.0938C234.625 28.0938 234.792 28.9896 234.938 29.7812C235.083 30.5729 235.198 31.1562 235.281 31.5312C235.281 31.5938 235.302 31.7083 235.344 31.875C235.406 32.0208 235.458 32.1771 235.5 32.3438C235.562 32.5104 235.615 32.6771 235.656 32.8438C235.719 32.9896 235.771 33.0938 235.812 33.1562C235.875 32.9896 236 32.7083 236.188 32.3125C236.396 31.8958 236.615 31.4583 236.844 31C237.073 30.5208 237.292 30.0833 237.5 29.6875C237.708 29.2708 237.865 28.9792 237.969 28.8125C238.302 28.2083 238.729 27.6562 239.25 27.1562C239.771 26.6562 240.281 26.3438 240.781 26.2188C241.281 26.0938 241.719 26.2188 242.094 26.5938C242.49 26.9479 242.74 27.6875 242.844 28.8125C242.865 29.0833 242.885 29.5 242.906 30.0625C242.948 30.625 242.99 31.2708 243.031 32C243.073 32.7083 243.115 33.4583 243.156 34.25C243.198 35.0417 243.229 35.7917 243.25 36.5C243.292 37.2083 243.323 37.8438 243.344 38.4062C243.385 38.9688 243.406 39.3854 243.406 39.6562C243.635 39.9479 243.802 40.2917 243.906 40.6875C244.031 41.0625 244.042 41.4375 243.938 41.8125C243.521 41.9583 243.167 41.9479 242.875 41.7812C242.583 41.6146 242.333 41.3854 242.125 41.0938C241.917 40.7812 241.74 40.4375 241.594 40.0625C241.448 39.6875 241.323 39.3646 241.219 39.0938C241.26 38.3021 241.292 37.4479 241.312 36.5312C241.333 35.6146 241.323 34.6875 241.281 33.75C241.26 32.7917 241.198 31.8438 241.094 30.9062C241.01 29.9688 240.875 29.0833 240.688 28.25C240.312 28.0625 239.958 28.1354 239.625 28.4688C239.312 28.8021 239.01 29.3125 238.719 30C238.448 30.6667 238.188 31.4583 237.938 32.375C237.688 33.2917 237.448 34.2604 237.219 35.2812C236.99 36.2812 236.76 37.2812 236.531 38.2812C236.323 39.2812 236.115 40.1875 235.906 41C235.719 41.8125 235.521 42.4896 235.312 43.0312C235.125 43.5729 234.927 43.8958 234.719 44L233.625 42.9062Z" fill="black"/>
</g>
<defs>
<filter id="filter0_d" x="84.1627" y="12.5078" width="163.846" height="40.181" filterUnits="userSpaceOnUse" color-interpolation-filters="sRGB">
<feFlood flood-opacity="0" result="BackgroundImageFix"/>
<feColorMatrix in="SourceAlpha" type="matrix" values="0 0 0 0 0 0 0 0 0 0 0 0 0 0 0 0 0 0 127 0"/>
<feOffset dy="4"/>
<feGaussianBlur stdDeviation="2"/>
<feColorMatrix type="matrix" values="0 0 0 0 0.94902 0 0 0 0 0.788235 0 0 0 0 0.298039 0 0 0 1 0"/>
<feBlend mode="normal" in2="BackgroundImageFix" result="effect1_dropShadow"/>
<feBlend mode="normal" in="SourceGraphic" in2="effect1_dropShadow" result="shape"/>
</filter>
</defs>
</svg>
